%TF.GenerationSoftware,KiCad,Pcbnew,10.0.4*%
%TF.CreationDate,2026-06-28T10:21:36+05:30*%
%TF.ProjectId,Slimmy,536c696d-6d79-42e6-9b69-6361645f7063,rev?*%
%TF.SameCoordinates,Original*%
%TF.FileFunction,Soldermask,Top*%
%TF.FilePolarity,Negative*%
%FSLAX46Y46*%
G04 Gerber Fmt 4.6, Leading zero omitted, Abs format (unit mm)*
G04 Created by KiCad (PCBNEW 10.0.4) date 2026-06-28 10:21:36*
%MOMM*%
%LPD*%
G01*
G04 APERTURE LIST*
G04 Aperture macros list*
%AMRoundRect*
0 Rectangle with rounded corners*
0 $1 Rounding radius*
0 $2 $3 $4 $5 $6 $7 $8 $9 X,Y pos of 4 corners*
0 Add a 4 corners polygon primitive as box body*
4,1,4,$2,$3,$4,$5,$6,$7,$8,$9,$2,$3,0*
0 Add four circle primitives for the rounded corners*
1,1,$1+$1,$2,$3*
1,1,$1+$1,$4,$5*
1,1,$1+$1,$6,$7*
1,1,$1+$1,$8,$9*
0 Add four rect primitives between the rounded corners*
20,1,$1+$1,$2,$3,$4,$5,0*
20,1,$1+$1,$4,$5,$6,$7,0*
20,1,$1+$1,$6,$7,$8,$9,0*
20,1,$1+$1,$8,$9,$2,$3,0*%
G04 Aperture macros list end*
%ADD10RoundRect,0.225000X-0.250000X0.225000X-0.250000X-0.225000X0.250000X-0.225000X0.250000X0.225000X0*%
%ADD11RoundRect,0.225000X0.250000X-0.225000X0.250000X0.225000X-0.250000X0.225000X-0.250000X-0.225000X0*%
%ADD12RoundRect,0.225000X0.225000X0.250000X-0.225000X0.250000X-0.225000X-0.250000X0.225000X-0.250000X0*%
%ADD13C,1.200000*%
%ADD14R,1.600000X0.700000*%
%ADD15R,1.500000X1.200000*%
%ADD16R,2.200000X1.200000*%
%ADD17R,1.500000X1.600000*%
%ADD18R,5.500000X1.300000*%
%ADD19R,2.000000X0.700000*%
%ADD20R,2.200000X0.300000*%
%ADD21O,0.785000X0.280000*%
%ADD22O,0.280000X0.785000*%
%ADD23R,3.000000X3.000000*%
%ADD24RoundRect,0.250000X-0.262500X-0.450000X0.262500X-0.450000X0.262500X0.450000X-0.262500X0.450000X0*%
%ADD25RoundRect,0.225000X-0.225000X-0.250000X0.225000X-0.250000X0.225000X0.250000X-0.225000X0.250000X0*%
G04 APERTURE END LIST*
D10*
%TO.C,C15*%
X203880000Y-85265000D03*
X203880000Y-86815000D03*
%TD*%
%TO.C,C14*%
X190860000Y-73640000D03*
X190860000Y-75190000D03*
%TD*%
D11*
%TO.C,C12*%
X195130000Y-86785000D03*
X195130000Y-85235000D03*
%TD*%
D12*
%TO.C,C1*%
X194835000Y-82640000D03*
X193285000Y-82640000D03*
%TD*%
D11*
%TO.C,C10*%
X204020000Y-83705000D03*
X204020000Y-82155000D03*
%TD*%
D13*
%TO.C,U2*%
X176880000Y-71590000D03*
X176880000Y-79590000D03*
D14*
X187880000Y-78790000D03*
X187880000Y-77690000D03*
X187880000Y-76590000D03*
X187880000Y-75490000D03*
X187880000Y-74390000D03*
X187880000Y-73290000D03*
X187880000Y-72190000D03*
X187880000Y-71090000D03*
D15*
X186880000Y-68790000D03*
D16*
X177280000Y-68790000D03*
X177280000Y-84290000D03*
D17*
X186880000Y-83390000D03*
D14*
X187880000Y-69990000D03*
%TD*%
D18*
%TO.C,X1*%
X203370000Y-70450000D03*
X194270000Y-70450000D03*
%TD*%
D10*
%TO.C,C11*%
X193600000Y-85225000D03*
X193600000Y-86775000D03*
%TD*%
D12*
%TO.C,C3*%
X207035000Y-68880000D03*
X205485000Y-68880000D03*
%TD*%
D11*
%TO.C,C7*%
X194050000Y-75875000D03*
X194050000Y-74325000D03*
%TD*%
D19*
%TO.C,USB-C-Male1*%
X208222500Y-80290000D03*
D20*
X208322500Y-74110000D03*
X208322500Y-74610000D03*
X208322500Y-75110000D03*
X208322500Y-75610000D03*
X208322500Y-76110000D03*
X208322500Y-76610000D03*
X208322500Y-77110000D03*
X208322500Y-77610000D03*
X208322500Y-78110000D03*
X208322500Y-78610000D03*
X208322500Y-79110000D03*
X208322500Y-79610000D03*
%TD*%
D11*
%TO.C,C5*%
X198430000Y-86795000D03*
X198430000Y-85245000D03*
%TD*%
D10*
%TO.C,C6*%
X199930000Y-85250000D03*
X199930000Y-86800000D03*
%TD*%
D21*
%TO.C,U1*%
X200930000Y-81960000D03*
X200930000Y-81460000D03*
X200930000Y-80960000D03*
X200930000Y-80460000D03*
X200930000Y-79960000D03*
X200930000Y-79460000D03*
X200930000Y-78960000D03*
X200930000Y-78460000D03*
D22*
X200270000Y-77800000D03*
X199770000Y-77800000D03*
X199270000Y-77800000D03*
X198770000Y-77800000D03*
X198270000Y-77800000D03*
X197770000Y-77800000D03*
X197270000Y-77800000D03*
X196770000Y-77800000D03*
D21*
X196110000Y-78460000D03*
X196110000Y-78960000D03*
X196110000Y-79460000D03*
X196110000Y-79960000D03*
X196110000Y-80460000D03*
X196110000Y-80960000D03*
X196110000Y-81460000D03*
X196110000Y-81960000D03*
D22*
X196770000Y-82620000D03*
X197270000Y-82620000D03*
X197770000Y-82620000D03*
X198270000Y-82620000D03*
X198770000Y-82620000D03*
X199270000Y-82620000D03*
X199770000Y-82620000D03*
X200270000Y-82620000D03*
D23*
X198520000Y-80210000D03*
%TD*%
D24*
%TO.C,R2*%
X197097500Y-76100000D03*
X198922500Y-76100000D03*
%TD*%
D10*
%TO.C,C8*%
X195520000Y-74815000D03*
X195520000Y-76365000D03*
%TD*%
D25*
%TO.C,C4*%
X190570000Y-68870000D03*
X192120000Y-68870000D03*
%TD*%
D12*
%TO.C,C2*%
X191825000Y-82640000D03*
X190275000Y-82640000D03*
%TD*%
D10*
%TO.C,C9*%
X205580000Y-82145000D03*
X205580000Y-83695000D03*
%TD*%
D11*
%TO.C,C13*%
X192420000Y-76525000D03*
X192420000Y-74975000D03*
%TD*%
%TO.C,C16*%
X202410000Y-86805000D03*
X202410000Y-85255000D03*
%TD*%
D24*
%TO.C,R1*%
X207427500Y-71110000D03*
X209252500Y-71110000D03*
%TD*%
M02*
