%TF.GenerationSoftware,KiCad,Pcbnew,10.0.4*%
%TF.CreationDate,2026-06-28T10:21:36+05:30*%
%TF.ProjectId,Slimmy,536c696d-6d79-42e6-9b69-6361645f7063,rev?*%
%TF.SameCoordinates,Original*%
%TF.FileFunction,Copper,L2,Inr*%
%TF.FilePolarity,Positive*%
%FSLAX46Y46*%
G04 Gerber Fmt 4.6, Leading zero omitted, Abs format (unit mm)*
G04 Created by KiCad (PCBNEW 10.0.4) date 2026-06-28 10:21:36*
%MOMM*%
%LPD*%
G01*
G04 APERTURE LIST*
%TA.AperFunction,ComponentPad*%
%ADD10C,1.200000*%
%TD*%
%TA.AperFunction,ViaPad*%
%ADD11C,0.600000*%
%TD*%
%TA.AperFunction,Conductor*%
%ADD12C,0.200000*%
%TD*%
G04 APERTURE END LIST*
D10*
%TO.N,*%
%TO.C,U2*%
X176880000Y-71590000D03*
X176880000Y-79590000D03*
%TD*%
D11*
%TO.N,GND*%
X209252500Y-71110000D03*
X190860000Y-73640000D03*
X196750000Y-86785000D03*
X197800000Y-83550000D03*
X186810000Y-83460000D03*
X187880000Y-73290000D03*
X186880000Y-68790000D03*
X193285000Y-82640000D03*
X208222500Y-80290000D03*
X208222500Y-73430000D03*
%TO.N,/3.3V*%
X201150000Y-77690000D03*
X195130000Y-85235000D03*
X205580000Y-82145000D03*
X195447500Y-76292500D03*
X196240000Y-83020000D03*
X204020000Y-82155000D03*
X193600000Y-85225000D03*
%TO.N,/1.2V*%
X202420000Y-85265000D03*
X192400000Y-76525000D03*
%TO.N,/TXN*%
X201370000Y-82990000D03*
X205520000Y-75120000D03*
%TO.N,/TXP*%
X206020000Y-74480000D03*
X202020000Y-82200000D03*
%TO.N,/RXP*%
X202790000Y-79970000D03*
X206350000Y-79740000D03*
%TO.N,/VBUS*%
X197400000Y-74580000D03*
X206260000Y-75720000D03*
X204660000Y-78770000D03*
%TO.N,/DM*%
X200060000Y-84000000D03*
X205470000Y-77740000D03*
%TO.N,/DP*%
X200850000Y-83670000D03*
X205030000Y-76970000D03*
%TD*%
%TO.N,GND*%
D12*
X186880000Y-72290000D02*
X186880000Y-68790000D01*
X192465000Y-83460000D02*
X193285000Y-82640000D01*
X188230000Y-73640000D02*
X187880000Y-73290000D01*
X196750000Y-84600000D02*
X196750000Y-86785000D01*
X187880000Y-73290000D02*
X186880000Y-72290000D01*
X207800000Y-71110000D02*
X206450000Y-72460000D01*
X186810000Y-83460000D02*
X192465000Y-83460000D01*
X206450000Y-72460000D02*
X206450000Y-72980000D01*
X190860000Y-73640000D02*
X188230000Y-73640000D01*
X206450000Y-72980000D02*
X206900000Y-73430000D01*
X197800000Y-83550000D02*
X196750000Y-84600000D01*
X209252500Y-71110000D02*
X207800000Y-71110000D01*
X206900000Y-73430000D02*
X208222500Y-73430000D01*
X208222500Y-73430000D02*
X208222500Y-80290000D01*
%TD*%
%TA.AperFunction,Conductor*%
%TO.N,GND*%
G36*
X211482539Y-67300185D02*
G01*
X211528294Y-67352989D01*
X211539500Y-67404500D01*
X211539500Y-88275500D01*
X211519815Y-88342539D01*
X211467011Y-88388294D01*
X211415500Y-88399500D01*
X172854500Y-88399500D01*
X172787461Y-88379815D01*
X172741706Y-88327011D01*
X172730500Y-88275500D01*
X172730500Y-85146153D01*
X192799500Y-85146153D01*
X192799500Y-85303846D01*
X192830261Y-85458489D01*
X192830264Y-85458501D01*
X192890602Y-85604172D01*
X192890609Y-85604185D01*
X192978210Y-85735288D01*
X192978213Y-85735292D01*
X193089707Y-85846786D01*
X193089711Y-85846789D01*
X193220814Y-85934390D01*
X193220827Y-85934397D01*
X193366498Y-85994735D01*
X193366503Y-85994737D01*
X193521153Y-86025499D01*
X193521156Y-86025500D01*
X193521158Y-86025500D01*
X193678844Y-86025500D01*
X193678845Y-86025499D01*
X193833497Y-85994737D01*
X193946166Y-85948067D01*
X193979172Y-85934397D01*
X193979172Y-85934396D01*
X193979179Y-85934394D01*
X194110289Y-85846789D01*
X194221789Y-85735289D01*
X194258556Y-85680262D01*
X194312166Y-85635458D01*
X194381491Y-85626749D01*
X194444519Y-85656903D01*
X194464760Y-85680261D01*
X194508213Y-85745292D01*
X194619707Y-85856786D01*
X194619711Y-85856789D01*
X194750814Y-85944390D01*
X194750827Y-85944397D01*
X194872363Y-85994738D01*
X194896503Y-86004737D01*
X195047312Y-86034735D01*
X195051153Y-86035499D01*
X195051156Y-86035500D01*
X195051158Y-86035500D01*
X195208844Y-86035500D01*
X195208845Y-86035499D01*
X195363497Y-86004737D01*
X195509179Y-85944394D01*
X195640289Y-85856789D01*
X195751789Y-85745289D01*
X195839394Y-85614179D01*
X195899737Y-85468497D01*
X195930500Y-85313842D01*
X195930500Y-85186153D01*
X201619500Y-85186153D01*
X201619500Y-85343846D01*
X201650261Y-85498489D01*
X201650264Y-85498501D01*
X201710602Y-85644172D01*
X201710609Y-85644185D01*
X201798210Y-85775288D01*
X201798213Y-85775292D01*
X201909707Y-85886786D01*
X201909711Y-85886789D01*
X202040814Y-85974390D01*
X202040827Y-85974397D01*
X202186498Y-86034735D01*
X202186503Y-86034737D01*
X202341153Y-86065499D01*
X202341156Y-86065500D01*
X202341158Y-86065500D01*
X202498844Y-86065500D01*
X202498845Y-86065499D01*
X202653497Y-86034737D01*
X202799179Y-85974394D01*
X202930289Y-85886789D01*
X203041789Y-85775289D01*
X203129394Y-85644179D01*
X203189737Y-85498497D01*
X203220500Y-85343842D01*
X203220500Y-85186158D01*
X203220500Y-85186155D01*
X203220499Y-85186153D01*
X203189738Y-85031510D01*
X203189737Y-85031503D01*
X203177309Y-85001498D01*
X203129397Y-84885827D01*
X203129390Y-84885814D01*
X203041789Y-84754711D01*
X203041786Y-84754707D01*
X202930292Y-84643213D01*
X202930288Y-84643210D01*
X202799185Y-84555609D01*
X202799172Y-84555602D01*
X202653501Y-84495264D01*
X202653489Y-84495261D01*
X202498845Y-84464500D01*
X202498842Y-84464500D01*
X202341158Y-84464500D01*
X202341155Y-84464500D01*
X202186510Y-84495261D01*
X202186498Y-84495264D01*
X202040827Y-84555602D01*
X202040814Y-84555609D01*
X201909711Y-84643210D01*
X201909707Y-84643213D01*
X201798213Y-84754707D01*
X201798210Y-84754711D01*
X201710609Y-84885814D01*
X201710602Y-84885827D01*
X201650264Y-85031498D01*
X201650261Y-85031510D01*
X201619500Y-85186153D01*
X195930500Y-85186153D01*
X195930500Y-85156158D01*
X195930500Y-85156155D01*
X195930499Y-85156153D01*
X195928510Y-85146153D01*
X195899737Y-85001503D01*
X195851823Y-84885827D01*
X195839397Y-84855827D01*
X195839390Y-84855814D01*
X195751789Y-84724711D01*
X195751786Y-84724707D01*
X195640292Y-84613213D01*
X195640288Y-84613210D01*
X195509185Y-84525609D01*
X195509172Y-84525602D01*
X195363501Y-84465264D01*
X195363489Y-84465261D01*
X195208845Y-84434500D01*
X195208842Y-84434500D01*
X195051158Y-84434500D01*
X195051155Y-84434500D01*
X194896510Y-84465261D01*
X194896498Y-84465264D01*
X194750827Y-84525602D01*
X194750814Y-84525609D01*
X194619711Y-84613210D01*
X194619707Y-84613213D01*
X194508213Y-84724707D01*
X194508208Y-84724714D01*
X194471441Y-84779738D01*
X194417828Y-84824543D01*
X194348503Y-84833249D01*
X194285476Y-84803093D01*
X194265238Y-84779736D01*
X194221792Y-84714715D01*
X194221786Y-84714707D01*
X194110292Y-84603213D01*
X194110288Y-84603210D01*
X193979185Y-84515609D01*
X193979172Y-84515602D01*
X193833501Y-84455264D01*
X193833489Y-84455261D01*
X193678845Y-84424500D01*
X193678842Y-84424500D01*
X193521158Y-84424500D01*
X193521155Y-84424500D01*
X193366510Y-84455261D01*
X193366498Y-84455264D01*
X193220827Y-84515602D01*
X193220814Y-84515609D01*
X193089711Y-84603210D01*
X193089707Y-84603213D01*
X192978213Y-84714707D01*
X192978210Y-84714711D01*
X192890609Y-84845814D01*
X192890602Y-84845827D01*
X192830264Y-84991498D01*
X192830261Y-84991510D01*
X192799500Y-85146153D01*
X172730500Y-85146153D01*
X172730500Y-83921153D01*
X199259500Y-83921153D01*
X199259500Y-84078846D01*
X199290261Y-84233489D01*
X199290264Y-84233501D01*
X199350602Y-84379172D01*
X199350609Y-84379185D01*
X199438210Y-84510288D01*
X199438213Y-84510292D01*
X199549707Y-84621786D01*
X199549711Y-84621789D01*
X199680814Y-84709390D01*
X199680827Y-84709397D01*
X199826498Y-84769735D01*
X199826503Y-84769737D01*
X199981153Y-84800499D01*
X199981156Y-84800500D01*
X199981158Y-84800500D01*
X200138844Y-84800500D01*
X200138845Y-84800499D01*
X200293497Y-84769737D01*
X200439179Y-84709394D01*
X200570289Y-84621789D01*
X200681789Y-84510289D01*
X200681791Y-84510285D01*
X200685258Y-84506819D01*
X200746581Y-84473334D01*
X200772940Y-84470500D01*
X200928844Y-84470500D01*
X200928845Y-84470499D01*
X201083497Y-84439737D01*
X201229179Y-84379394D01*
X201360289Y-84291789D01*
X201471789Y-84180289D01*
X201559394Y-84049179D01*
X201619737Y-83903497D01*
X201639428Y-83804500D01*
X201671812Y-83742592D01*
X201713593Y-83714133D01*
X201749179Y-83699394D01*
X201880289Y-83611789D01*
X201991789Y-83500289D01*
X202079394Y-83369179D01*
X202139737Y-83223497D01*
X202170500Y-83068842D01*
X202170500Y-83068841D01*
X202171650Y-83063060D01*
X202204035Y-83001149D01*
X202248625Y-82973893D01*
X202247869Y-82972068D01*
X202322501Y-82941155D01*
X202362135Y-82924738D01*
X202399172Y-82909397D01*
X202399172Y-82909396D01*
X202399179Y-82909394D01*
X202530289Y-82821789D01*
X202641789Y-82710289D01*
X202729394Y-82579179D01*
X202789737Y-82433497D01*
X202820500Y-82278842D01*
X202820500Y-82121158D01*
X202815149Y-82094256D01*
X202815149Y-82094253D01*
X202811549Y-82076153D01*
X203219500Y-82076153D01*
X203219500Y-82233846D01*
X203250261Y-82388489D01*
X203250264Y-82388501D01*
X203310602Y-82534172D01*
X203310609Y-82534185D01*
X203398210Y-82665288D01*
X203398213Y-82665292D01*
X203509707Y-82776786D01*
X203509711Y-82776789D01*
X203640814Y-82864390D01*
X203640827Y-82864397D01*
X203774420Y-82919732D01*
X203786503Y-82924737D01*
X203941153Y-82955499D01*
X203941156Y-82955500D01*
X203941158Y-82955500D01*
X204098844Y-82955500D01*
X204098845Y-82955499D01*
X204253497Y-82924737D01*
X204399179Y-82864394D01*
X204530289Y-82776789D01*
X204641789Y-82665289D01*
X204700239Y-82577812D01*
X204753849Y-82533009D01*
X204823174Y-82524301D01*
X204886202Y-82554455D01*
X204906442Y-82577813D01*
X204958210Y-82655288D01*
X204958213Y-82655292D01*
X205069707Y-82766786D01*
X205069711Y-82766789D01*
X205200814Y-82854390D01*
X205200827Y-82854397D01*
X205333611Y-82909397D01*
X205346503Y-82914737D01*
X205501153Y-82945499D01*
X205501156Y-82945500D01*
X205501158Y-82945500D01*
X205658844Y-82945500D01*
X205658845Y-82945499D01*
X205813497Y-82914737D01*
X205926166Y-82868067D01*
X205959172Y-82854397D01*
X205959172Y-82854396D01*
X205959179Y-82854394D01*
X206090289Y-82766789D01*
X206201789Y-82655289D01*
X206289394Y-82524179D01*
X206295389Y-82509707D01*
X206341571Y-82398211D01*
X206349737Y-82378497D01*
X206380500Y-82223842D01*
X206380500Y-82066158D01*
X206380500Y-82066155D01*
X206380499Y-82066153D01*
X206349737Y-81911503D01*
X206293539Y-81775827D01*
X206289397Y-81765827D01*
X206289390Y-81765814D01*
X206201789Y-81634711D01*
X206201786Y-81634707D01*
X206090292Y-81523213D01*
X206090288Y-81523210D01*
X205959185Y-81435609D01*
X205959172Y-81435602D01*
X205813501Y-81375264D01*
X205813489Y-81375261D01*
X205658845Y-81344500D01*
X205658842Y-81344500D01*
X205501158Y-81344500D01*
X205501155Y-81344500D01*
X205346510Y-81375261D01*
X205346498Y-81375264D01*
X205200827Y-81435602D01*
X205200814Y-81435609D01*
X205069711Y-81523210D01*
X205069707Y-81523213D01*
X204958213Y-81634707D01*
X204958210Y-81634711D01*
X204899761Y-81722186D01*
X204846148Y-81766991D01*
X204776823Y-81775698D01*
X204713796Y-81745543D01*
X204693557Y-81722186D01*
X204641789Y-81644711D01*
X204641786Y-81644707D01*
X204530292Y-81533213D01*
X204530288Y-81533210D01*
X204399185Y-81445609D01*
X204399172Y-81445602D01*
X204253501Y-81385264D01*
X204253489Y-81385261D01*
X204098845Y-81354500D01*
X204098842Y-81354500D01*
X203941158Y-81354500D01*
X203941155Y-81354500D01*
X203786510Y-81385261D01*
X203786498Y-81385264D01*
X203640827Y-81445602D01*
X203640814Y-81445609D01*
X203509711Y-81533210D01*
X203509707Y-81533213D01*
X203398213Y-81644707D01*
X203398210Y-81644711D01*
X203310609Y-81775814D01*
X203310602Y-81775827D01*
X203250264Y-81921498D01*
X203250261Y-81921510D01*
X203219500Y-82076153D01*
X202811549Y-82076153D01*
X202789738Y-81966508D01*
X202789737Y-81966507D01*
X202789737Y-81966503D01*
X202789735Y-81966498D01*
X202729397Y-81820827D01*
X202729390Y-81820814D01*
X202641789Y-81689711D01*
X202641786Y-81689707D01*
X202530292Y-81578213D01*
X202530288Y-81578210D01*
X202399185Y-81490609D01*
X202399172Y-81490602D01*
X202253501Y-81430264D01*
X202253489Y-81430261D01*
X202098845Y-81399500D01*
X202098842Y-81399500D01*
X201941158Y-81399500D01*
X201941155Y-81399500D01*
X201786510Y-81430261D01*
X201786498Y-81430264D01*
X201640827Y-81490602D01*
X201640814Y-81490609D01*
X201509711Y-81578210D01*
X201509707Y-81578213D01*
X201398213Y-81689707D01*
X201398210Y-81689711D01*
X201310609Y-81820814D01*
X201310602Y-81820827D01*
X201250264Y-81966498D01*
X201250261Y-81966508D01*
X201218349Y-82126939D01*
X201185964Y-82188850D01*
X201141382Y-82216127D01*
X201142130Y-82217932D01*
X200990827Y-82280602D01*
X200990814Y-82280609D01*
X200859711Y-82368210D01*
X200859707Y-82368213D01*
X200748213Y-82479707D01*
X200748210Y-82479711D01*
X200660609Y-82610814D01*
X200660602Y-82610827D01*
X200600264Y-82756498D01*
X200600261Y-82756508D01*
X200580571Y-82855496D01*
X200548186Y-82917407D01*
X200506408Y-82945864D01*
X200470829Y-82960601D01*
X200470814Y-82960609D01*
X200339711Y-83048210D01*
X200339707Y-83048213D01*
X200224740Y-83163181D01*
X200163417Y-83196666D01*
X200137059Y-83199500D01*
X199981155Y-83199500D01*
X199826510Y-83230261D01*
X199826498Y-83230264D01*
X199680827Y-83290602D01*
X199680814Y-83290609D01*
X199549711Y-83378210D01*
X199549707Y-83378213D01*
X199438213Y-83489707D01*
X199438210Y-83489711D01*
X199350609Y-83620814D01*
X199350602Y-83620827D01*
X199290264Y-83766498D01*
X199290261Y-83766510D01*
X199259500Y-83921153D01*
X172730500Y-83921153D01*
X172730500Y-82941153D01*
X195439500Y-82941153D01*
X195439500Y-83098846D01*
X195470261Y-83253489D01*
X195470264Y-83253501D01*
X195530602Y-83399172D01*
X195530609Y-83399185D01*
X195618210Y-83530288D01*
X195618213Y-83530292D01*
X195729707Y-83641786D01*
X195729711Y-83641789D01*
X195860814Y-83729390D01*
X195860827Y-83729397D01*
X196006498Y-83789735D01*
X196006503Y-83789737D01*
X196161153Y-83820499D01*
X196161156Y-83820500D01*
X196161158Y-83820500D01*
X196318844Y-83820500D01*
X196454837Y-83793449D01*
X196454837Y-83793448D01*
X196473497Y-83789737D01*
X196619179Y-83729394D01*
X196750289Y-83641789D01*
X196861789Y-83530289D01*
X196949394Y-83399179D01*
X197009737Y-83253497D01*
X197040500Y-83098842D01*
X197040500Y-82941158D01*
X197040500Y-82941155D01*
X197040499Y-82941153D01*
X197035245Y-82914738D01*
X197009737Y-82786503D01*
X196978170Y-82710292D01*
X196949397Y-82640827D01*
X196949390Y-82640814D01*
X196861789Y-82509711D01*
X196861786Y-82509707D01*
X196750292Y-82398213D01*
X196750288Y-82398210D01*
X196619185Y-82310609D01*
X196619172Y-82310602D01*
X196473501Y-82250264D01*
X196473489Y-82250261D01*
X196318845Y-82219500D01*
X196318842Y-82219500D01*
X196161158Y-82219500D01*
X196161155Y-82219500D01*
X196006510Y-82250261D01*
X196006498Y-82250264D01*
X195860827Y-82310602D01*
X195860814Y-82310609D01*
X195729711Y-82398210D01*
X195729707Y-82398213D01*
X195618213Y-82509707D01*
X195618210Y-82509711D01*
X195530609Y-82640814D01*
X195530602Y-82640827D01*
X195470264Y-82786498D01*
X195470261Y-82786510D01*
X195439500Y-82941153D01*
X172730500Y-82941153D01*
X172730500Y-79503389D01*
X175779500Y-79503389D01*
X175779500Y-79676611D01*
X175806598Y-79847701D01*
X175860127Y-80012445D01*
X175938768Y-80166788D01*
X176040586Y-80306928D01*
X176163072Y-80429414D01*
X176303212Y-80531232D01*
X176457555Y-80609873D01*
X176622299Y-80663402D01*
X176793389Y-80690500D01*
X176793390Y-80690500D01*
X176966610Y-80690500D01*
X176966611Y-80690500D01*
X177137701Y-80663402D01*
X177302445Y-80609873D01*
X177456788Y-80531232D01*
X177596928Y-80429414D01*
X177719414Y-80306928D01*
X177821232Y-80166788D01*
X177899873Y-80012445D01*
X177939283Y-79891153D01*
X201989500Y-79891153D01*
X201989500Y-80048846D01*
X202020261Y-80203489D01*
X202020264Y-80203501D01*
X202080602Y-80349172D01*
X202080609Y-80349185D01*
X202168210Y-80480288D01*
X202168213Y-80480292D01*
X202279707Y-80591786D01*
X202279711Y-80591789D01*
X202410814Y-80679390D01*
X202410827Y-80679397D01*
X202556498Y-80739735D01*
X202556503Y-80739737D01*
X202711153Y-80770499D01*
X202711156Y-80770500D01*
X202711158Y-80770500D01*
X202868844Y-80770500D01*
X202868845Y-80770499D01*
X203023497Y-80739737D01*
X203169179Y-80679394D01*
X203300289Y-80591789D01*
X203411789Y-80480289D01*
X203499394Y-80349179D01*
X203559737Y-80203497D01*
X203590500Y-80048842D01*
X203590500Y-79891158D01*
X203590500Y-79891155D01*
X203590499Y-79891153D01*
X203559738Y-79736510D01*
X203559737Y-79736503D01*
X203534929Y-79676610D01*
X203528527Y-79661153D01*
X205549500Y-79661153D01*
X205549500Y-79818846D01*
X205580261Y-79973489D01*
X205580264Y-79973501D01*
X205640602Y-80119172D01*
X205640609Y-80119185D01*
X205728210Y-80250288D01*
X205728213Y-80250292D01*
X205839707Y-80361786D01*
X205839711Y-80361789D01*
X205970814Y-80449390D01*
X205970827Y-80449397D01*
X206116498Y-80509735D01*
X206116503Y-80509737D01*
X206271153Y-80540499D01*
X206271156Y-80540500D01*
X206271158Y-80540500D01*
X206428844Y-80540500D01*
X206428845Y-80540499D01*
X206583497Y-80509737D01*
X206729179Y-80449394D01*
X206860289Y-80361789D01*
X206971789Y-80250289D01*
X207059394Y-80119179D01*
X207119737Y-79973497D01*
X207150500Y-79818842D01*
X207150500Y-79661158D01*
X207150500Y-79661155D01*
X207150499Y-79661153D01*
X207136509Y-79590821D01*
X207119737Y-79506503D01*
X207118447Y-79503389D01*
X207059397Y-79360827D01*
X207059390Y-79360814D01*
X206971789Y-79229711D01*
X206971786Y-79229707D01*
X206860292Y-79118213D01*
X206860288Y-79118210D01*
X206729185Y-79030609D01*
X206729172Y-79030602D01*
X206583501Y-78970264D01*
X206583489Y-78970261D01*
X206428845Y-78939500D01*
X206428842Y-78939500D01*
X206271158Y-78939500D01*
X206271155Y-78939500D01*
X206116510Y-78970261D01*
X206116498Y-78970264D01*
X205970827Y-79030602D01*
X205970814Y-79030609D01*
X205839711Y-79118210D01*
X205839707Y-79118213D01*
X205728213Y-79229707D01*
X205728210Y-79229711D01*
X205640609Y-79360814D01*
X205640602Y-79360827D01*
X205580264Y-79506498D01*
X205580261Y-79506510D01*
X205549500Y-79661153D01*
X203528527Y-79661153D01*
X203499397Y-79590827D01*
X203499390Y-79590814D01*
X203411789Y-79459711D01*
X203411786Y-79459707D01*
X203300292Y-79348213D01*
X203300288Y-79348210D01*
X203169185Y-79260609D01*
X203169172Y-79260602D01*
X203023501Y-79200264D01*
X203023489Y-79200261D01*
X202868845Y-79169500D01*
X202868842Y-79169500D01*
X202711158Y-79169500D01*
X202711155Y-79169500D01*
X202556510Y-79200261D01*
X202556498Y-79200264D01*
X202410827Y-79260602D01*
X202410814Y-79260609D01*
X202279711Y-79348210D01*
X202279707Y-79348213D01*
X202168213Y-79459707D01*
X202168210Y-79459711D01*
X202080609Y-79590814D01*
X202080602Y-79590827D01*
X202020264Y-79736498D01*
X202020261Y-79736510D01*
X201989500Y-79891153D01*
X177939283Y-79891153D01*
X177953402Y-79847701D01*
X177980500Y-79676611D01*
X177980500Y-79503389D01*
X177953402Y-79332299D01*
X177899873Y-79167555D01*
X177821232Y-79013212D01*
X177719414Y-78873072D01*
X177596928Y-78750586D01*
X177515126Y-78691153D01*
X203859500Y-78691153D01*
X203859500Y-78848846D01*
X203890261Y-79003489D01*
X203890264Y-79003501D01*
X203950602Y-79149172D01*
X203950609Y-79149185D01*
X204038210Y-79280288D01*
X204038213Y-79280292D01*
X204149707Y-79391786D01*
X204149711Y-79391789D01*
X204280814Y-79479390D01*
X204280827Y-79479397D01*
X204338750Y-79503389D01*
X204426503Y-79539737D01*
X204581153Y-79570499D01*
X204581156Y-79570500D01*
X204581158Y-79570500D01*
X204738844Y-79570500D01*
X204738845Y-79570499D01*
X204893497Y-79539737D01*
X205039179Y-79479394D01*
X205170289Y-79391789D01*
X205281789Y-79280289D01*
X205369394Y-79149179D01*
X205429737Y-79003497D01*
X205460500Y-78848842D01*
X205460500Y-78691158D01*
X205459227Y-78684759D01*
X205465450Y-78615170D01*
X205508309Y-78559990D01*
X205556649Y-78538946D01*
X205703497Y-78509737D01*
X205849179Y-78449394D01*
X205980289Y-78361789D01*
X206091789Y-78250289D01*
X206179394Y-78119179D01*
X206239737Y-77973497D01*
X206270500Y-77818842D01*
X206270500Y-77661158D01*
X206270500Y-77661155D01*
X206270499Y-77661153D01*
X206256702Y-77591792D01*
X206239737Y-77506503D01*
X206228879Y-77480289D01*
X206179397Y-77360827D01*
X206179390Y-77360814D01*
X206091789Y-77229711D01*
X206091786Y-77229707D01*
X205980292Y-77118213D01*
X205980288Y-77118210D01*
X205885609Y-77054947D01*
X205840804Y-77001335D01*
X205830500Y-76951845D01*
X205830500Y-76891155D01*
X205830499Y-76891153D01*
X205812922Y-76802788D01*
X205799737Y-76736503D01*
X205744789Y-76603846D01*
X205743951Y-76601822D01*
X205736482Y-76532353D01*
X205767757Y-76469874D01*
X205827846Y-76434222D01*
X205897671Y-76436716D01*
X205905964Y-76439809D01*
X205978549Y-76469874D01*
X206026503Y-76489737D01*
X206181153Y-76520499D01*
X206181156Y-76520500D01*
X206181158Y-76520500D01*
X206338844Y-76520500D01*
X206338845Y-76520499D01*
X206493497Y-76489737D01*
X206639179Y-76429394D01*
X206770289Y-76341789D01*
X206881789Y-76230289D01*
X206969394Y-76099179D01*
X207029737Y-75953497D01*
X207060500Y-75798842D01*
X207060500Y-75641158D01*
X207060500Y-75641155D01*
X207060499Y-75641153D01*
X207036950Y-75522764D01*
X207029737Y-75486503D01*
X207029735Y-75486498D01*
X206969397Y-75340827D01*
X206969390Y-75340814D01*
X206881789Y-75209711D01*
X206881786Y-75209707D01*
X206770292Y-75098213D01*
X206770284Y-75098207D01*
X206734701Y-75074431D01*
X206689895Y-75020819D01*
X206681188Y-74951494D01*
X206700490Y-74902437D01*
X206729389Y-74859187D01*
X206729390Y-74859184D01*
X206729394Y-74859179D01*
X206789737Y-74713497D01*
X206820500Y-74558842D01*
X206820500Y-74401158D01*
X206820500Y-74401155D01*
X206820499Y-74401153D01*
X206789738Y-74246510D01*
X206789737Y-74246503D01*
X206770812Y-74200814D01*
X206729397Y-74100827D01*
X206729390Y-74100814D01*
X206641789Y-73969711D01*
X206641786Y-73969707D01*
X206530292Y-73858213D01*
X206530288Y-73858210D01*
X206399185Y-73770609D01*
X206399172Y-73770602D01*
X206253501Y-73710264D01*
X206253489Y-73710261D01*
X206098845Y-73679500D01*
X206098842Y-73679500D01*
X205941158Y-73679500D01*
X205941155Y-73679500D01*
X205786510Y-73710261D01*
X205786498Y-73710264D01*
X205640827Y-73770602D01*
X205640814Y-73770609D01*
X205509711Y-73858210D01*
X205509707Y-73858213D01*
X205398213Y-73969707D01*
X205398210Y-73969711D01*
X205310609Y-74100814D01*
X205310602Y-74100827D01*
X205250264Y-74246498D01*
X205250261Y-74246507D01*
X205237446Y-74310933D01*
X205205060Y-74372843D01*
X205163286Y-74401299D01*
X205140828Y-74410602D01*
X205140814Y-74410609D01*
X205009711Y-74498210D01*
X205009707Y-74498213D01*
X204898213Y-74609707D01*
X204898210Y-74609711D01*
X204810609Y-74740814D01*
X204810602Y-74740827D01*
X204750264Y-74886498D01*
X204750261Y-74886510D01*
X204719500Y-75041153D01*
X204719500Y-75198846D01*
X204750261Y-75353489D01*
X204750264Y-75353501D01*
X204810602Y-75499172D01*
X204810609Y-75499185D01*
X204898210Y-75630288D01*
X204898213Y-75630292D01*
X205009707Y-75741786D01*
X205009711Y-75741789D01*
X205140814Y-75829390D01*
X205140827Y-75829397D01*
X205286498Y-75889735D01*
X205286503Y-75889737D01*
X205414771Y-75915251D01*
X205421805Y-75918930D01*
X205429740Y-75919214D01*
X205452319Y-75934891D01*
X205476682Y-75947635D01*
X205482074Y-75955551D01*
X205487132Y-75959063D01*
X205505138Y-75989410D01*
X205533963Y-76058998D01*
X205546049Y-76088177D01*
X205553517Y-76157647D01*
X205522241Y-76220126D01*
X205462152Y-76255778D01*
X205392327Y-76253283D01*
X205384035Y-76250190D01*
X205263501Y-76200264D01*
X205263489Y-76200261D01*
X205108845Y-76169500D01*
X205108842Y-76169500D01*
X204951158Y-76169500D01*
X204951155Y-76169500D01*
X204796510Y-76200261D01*
X204796498Y-76200264D01*
X204650827Y-76260602D01*
X204650814Y-76260609D01*
X204519711Y-76348210D01*
X204519707Y-76348213D01*
X204408213Y-76459707D01*
X204408210Y-76459711D01*
X204320609Y-76590814D01*
X204320602Y-76590827D01*
X204260264Y-76736498D01*
X204260261Y-76736510D01*
X204229500Y-76891153D01*
X204229500Y-77048846D01*
X204260261Y-77203489D01*
X204260264Y-77203501D01*
X204320602Y-77349172D01*
X204320609Y-77349185D01*
X204408210Y-77480288D01*
X204408213Y-77480292D01*
X204519707Y-77591786D01*
X204519715Y-77591792D01*
X204614390Y-77655052D01*
X204617866Y-77659211D01*
X204622887Y-77661266D01*
X204640036Y-77685738D01*
X204659196Y-77708664D01*
X204660700Y-77715226D01*
X204662984Y-77718486D01*
X204666873Y-77742161D01*
X204669401Y-77753192D01*
X204669500Y-77755663D01*
X204669500Y-77818842D01*
X204672668Y-77834770D01*
X204673057Y-77844474D01*
X204666828Y-77869324D01*
X204664546Y-77894836D01*
X204658476Y-77902649D01*
X204656071Y-77912247D01*
X204637396Y-77929785D01*
X204621683Y-77950013D01*
X204610825Y-77954739D01*
X204605140Y-77960079D01*
X204593698Y-77962194D01*
X204573348Y-77971053D01*
X204426508Y-78000261D01*
X204426498Y-78000264D01*
X204280827Y-78060602D01*
X204280814Y-78060609D01*
X204149711Y-78148210D01*
X204149707Y-78148213D01*
X204038213Y-78259707D01*
X204038210Y-78259711D01*
X203950609Y-78390814D01*
X203950602Y-78390827D01*
X203890264Y-78536498D01*
X203890261Y-78536510D01*
X203859500Y-78691153D01*
X177515126Y-78691153D01*
X177456788Y-78648768D01*
X177302445Y-78570127D01*
X177137701Y-78516598D01*
X177137699Y-78516597D01*
X177137698Y-78516597D01*
X177006271Y-78495781D01*
X176966611Y-78489500D01*
X176793389Y-78489500D01*
X176753728Y-78495781D01*
X176622302Y-78516597D01*
X176457552Y-78570128D01*
X176303211Y-78648768D01*
X176244874Y-78691153D01*
X176163072Y-78750586D01*
X176163070Y-78750588D01*
X176163069Y-78750588D01*
X176040588Y-78873069D01*
X176040588Y-78873070D01*
X176040586Y-78873072D01*
X175996859Y-78933256D01*
X175938768Y-79013211D01*
X175860128Y-79167552D01*
X175806597Y-79332302D01*
X175786418Y-79459711D01*
X175779500Y-79503389D01*
X172730500Y-79503389D01*
X172730500Y-77611153D01*
X200349500Y-77611153D01*
X200349500Y-77768846D01*
X200380261Y-77923489D01*
X200380264Y-77923501D01*
X200440602Y-78069172D01*
X200440609Y-78069185D01*
X200528210Y-78200288D01*
X200528213Y-78200292D01*
X200639707Y-78311786D01*
X200639711Y-78311789D01*
X200770814Y-78399390D01*
X200770827Y-78399397D01*
X200916498Y-78459735D01*
X200916503Y-78459737D01*
X201066131Y-78489500D01*
X201071153Y-78490499D01*
X201071156Y-78490500D01*
X201071158Y-78490500D01*
X201228844Y-78490500D01*
X201228845Y-78490499D01*
X201383497Y-78459737D01*
X201529179Y-78399394D01*
X201660289Y-78311789D01*
X201771789Y-78200289D01*
X201859394Y-78069179D01*
X201919737Y-77923497D01*
X201950500Y-77768842D01*
X201950500Y-77611158D01*
X201950500Y-77611155D01*
X201950499Y-77611153D01*
X201929684Y-77506510D01*
X201919737Y-77456503D01*
X201875285Y-77349185D01*
X201859397Y-77310827D01*
X201859390Y-77310814D01*
X201771789Y-77179711D01*
X201771786Y-77179707D01*
X201660292Y-77068213D01*
X201660288Y-77068210D01*
X201529185Y-76980609D01*
X201529172Y-76980602D01*
X201383501Y-76920264D01*
X201383489Y-76920261D01*
X201228845Y-76889500D01*
X201228842Y-76889500D01*
X201071158Y-76889500D01*
X201071155Y-76889500D01*
X200916510Y-76920261D01*
X200916498Y-76920264D01*
X200770827Y-76980602D01*
X200770814Y-76980609D01*
X200639711Y-77068210D01*
X200639707Y-77068213D01*
X200528213Y-77179707D01*
X200528210Y-77179711D01*
X200440609Y-77310814D01*
X200440602Y-77310827D01*
X200380264Y-77456498D01*
X200380261Y-77456510D01*
X200349500Y-77611153D01*
X172730500Y-77611153D01*
X172730500Y-76446153D01*
X191599500Y-76446153D01*
X191599500Y-76603846D01*
X191630261Y-76758489D01*
X191630264Y-76758501D01*
X191690602Y-76904172D01*
X191690609Y-76904185D01*
X191778210Y-77035288D01*
X191778213Y-77035292D01*
X191889707Y-77146786D01*
X191889711Y-77146789D01*
X192020814Y-77234390D01*
X192020827Y-77234397D01*
X192166498Y-77294735D01*
X192166503Y-77294737D01*
X192321153Y-77325499D01*
X192321156Y-77325500D01*
X192321158Y-77325500D01*
X192478844Y-77325500D01*
X192478845Y-77325499D01*
X192633497Y-77294737D01*
X192779179Y-77234394D01*
X192910289Y-77146789D01*
X193021789Y-77035289D01*
X193109394Y-76904179D01*
X193169737Y-76758497D01*
X193200500Y-76603842D01*
X193200500Y-76446158D01*
X193200500Y-76446155D01*
X193200499Y-76446153D01*
X193181017Y-76348210D01*
X193169737Y-76291503D01*
X193169735Y-76291498D01*
X193154625Y-76255018D01*
X193137491Y-76213653D01*
X194647000Y-76213653D01*
X194647000Y-76371346D01*
X194677761Y-76525989D01*
X194677764Y-76526001D01*
X194738102Y-76671672D01*
X194738109Y-76671685D01*
X194825710Y-76802788D01*
X194825713Y-76802792D01*
X194937207Y-76914286D01*
X194937211Y-76914289D01*
X195068314Y-77001890D01*
X195068327Y-77001897D01*
X195181664Y-77048842D01*
X195214003Y-77062237D01*
X195368653Y-77092999D01*
X195368656Y-77093000D01*
X195368658Y-77093000D01*
X195526344Y-77093000D01*
X195526345Y-77092999D01*
X195680997Y-77062237D01*
X195826679Y-77001894D01*
X195957789Y-76914289D01*
X196069289Y-76802789D01*
X196156894Y-76671679D01*
X196217237Y-76525997D01*
X196248000Y-76371342D01*
X196248000Y-76213658D01*
X196248000Y-76213655D01*
X196247999Y-76213653D01*
X196239216Y-76169500D01*
X196217237Y-76059003D01*
X196198889Y-76014707D01*
X196156897Y-75913327D01*
X196156890Y-75913314D01*
X196069289Y-75782211D01*
X196069286Y-75782207D01*
X195957792Y-75670713D01*
X195957788Y-75670710D01*
X195826685Y-75583109D01*
X195826672Y-75583102D01*
X195681001Y-75522764D01*
X195680989Y-75522761D01*
X195526345Y-75492000D01*
X195526342Y-75492000D01*
X195368658Y-75492000D01*
X195368655Y-75492000D01*
X195214010Y-75522761D01*
X195213998Y-75522764D01*
X195068327Y-75583102D01*
X195068314Y-75583109D01*
X194937211Y-75670710D01*
X194937207Y-75670713D01*
X194825713Y-75782207D01*
X194825710Y-75782211D01*
X194738109Y-75913314D01*
X194738102Y-75913327D01*
X194677764Y-76058998D01*
X194677761Y-76059010D01*
X194647000Y-76213653D01*
X193137491Y-76213653D01*
X193109397Y-76145827D01*
X193109390Y-76145814D01*
X193021789Y-76014711D01*
X193021786Y-76014707D01*
X192910292Y-75903213D01*
X192910288Y-75903210D01*
X192779185Y-75815609D01*
X192779172Y-75815602D01*
X192633501Y-75755264D01*
X192633489Y-75755261D01*
X192478845Y-75724500D01*
X192478842Y-75724500D01*
X192321158Y-75724500D01*
X192321155Y-75724500D01*
X192166510Y-75755261D01*
X192166498Y-75755264D01*
X192020827Y-75815602D01*
X192020814Y-75815609D01*
X191889711Y-75903210D01*
X191889707Y-75903213D01*
X191778213Y-76014707D01*
X191778210Y-76014711D01*
X191690609Y-76145814D01*
X191690602Y-76145827D01*
X191630264Y-76291498D01*
X191630261Y-76291510D01*
X191599500Y-76446153D01*
X172730500Y-76446153D01*
X172730500Y-74501153D01*
X196599500Y-74501153D01*
X196599500Y-74658846D01*
X196630261Y-74813489D01*
X196630264Y-74813501D01*
X196690602Y-74959172D01*
X196690609Y-74959185D01*
X196778210Y-75090288D01*
X196778213Y-75090292D01*
X196889707Y-75201786D01*
X196889711Y-75201789D01*
X197020814Y-75289390D01*
X197020827Y-75289397D01*
X197144992Y-75340827D01*
X197166503Y-75349737D01*
X197321153Y-75380499D01*
X197321156Y-75380500D01*
X197321158Y-75380500D01*
X197478844Y-75380500D01*
X197478845Y-75380499D01*
X197633497Y-75349737D01*
X197779179Y-75289394D01*
X197910289Y-75201789D01*
X198021789Y-75090289D01*
X198109394Y-74959179D01*
X198169737Y-74813497D01*
X198200500Y-74658842D01*
X198200500Y-74501158D01*
X198200500Y-74501155D01*
X198200499Y-74501153D01*
X198199914Y-74498210D01*
X198169737Y-74346503D01*
X198128314Y-74246498D01*
X198109397Y-74200827D01*
X198109390Y-74200814D01*
X198021789Y-74069711D01*
X198021786Y-74069707D01*
X197910292Y-73958213D01*
X197910288Y-73958210D01*
X197779185Y-73870609D01*
X197779172Y-73870602D01*
X197633501Y-73810264D01*
X197633489Y-73810261D01*
X197478845Y-73779500D01*
X197478842Y-73779500D01*
X197321158Y-73779500D01*
X197321155Y-73779500D01*
X197166510Y-73810261D01*
X197166498Y-73810264D01*
X197020827Y-73870602D01*
X197020814Y-73870609D01*
X196889711Y-73958210D01*
X196889707Y-73958213D01*
X196778213Y-74069707D01*
X196778210Y-74069711D01*
X196690609Y-74200814D01*
X196690602Y-74200827D01*
X196630264Y-74346498D01*
X196630261Y-74346510D01*
X196599500Y-74501153D01*
X172730500Y-74501153D01*
X172730500Y-71503389D01*
X175779500Y-71503389D01*
X175779500Y-71676611D01*
X175806598Y-71847701D01*
X175860127Y-72012445D01*
X175938768Y-72166788D01*
X176040586Y-72306928D01*
X176163072Y-72429414D01*
X176303212Y-72531232D01*
X176457555Y-72609873D01*
X176622299Y-72663402D01*
X176793389Y-72690500D01*
X176793390Y-72690500D01*
X176966610Y-72690500D01*
X176966611Y-72690500D01*
X177137701Y-72663402D01*
X177302445Y-72609873D01*
X177456788Y-72531232D01*
X177596928Y-72429414D01*
X177719414Y-72306928D01*
X177821232Y-72166788D01*
X177899873Y-72012445D01*
X177953402Y-71847701D01*
X177980500Y-71676611D01*
X177980500Y-71503389D01*
X177953402Y-71332299D01*
X177899873Y-71167555D01*
X177821232Y-71013212D01*
X177719414Y-70873072D01*
X177596928Y-70750586D01*
X177456788Y-70648768D01*
X177302445Y-70570127D01*
X177137701Y-70516598D01*
X177137699Y-70516597D01*
X177137698Y-70516597D01*
X177006271Y-70495781D01*
X176966611Y-70489500D01*
X176793389Y-70489500D01*
X176753728Y-70495781D01*
X176622302Y-70516597D01*
X176457552Y-70570128D01*
X176303211Y-70648768D01*
X176223256Y-70706859D01*
X176163072Y-70750586D01*
X176163070Y-70750588D01*
X176163069Y-70750588D01*
X176040588Y-70873069D01*
X176040588Y-70873070D01*
X176040586Y-70873072D01*
X175996859Y-70933256D01*
X175938768Y-71013211D01*
X175860128Y-71167552D01*
X175806597Y-71332302D01*
X175779500Y-71503389D01*
X172730500Y-71503389D01*
X172730500Y-67404500D01*
X172750185Y-67337461D01*
X172802989Y-67291706D01*
X172854500Y-67280500D01*
X211415500Y-67280500D01*
X211482539Y-67300185D01*
G37*
%TD.AperFunction*%
%TD*%
M02*
