%TF.GenerationSoftware,KiCad,Pcbnew,10.0.4*%
%TF.CreationDate,2026-06-28T10:21:37+05:30*%
%TF.ProjectId,Slimmy,536c696d-6d79-42e6-9b69-6361645f7063,rev?*%
%TF.SameCoordinates,Original*%
%TF.FileFunction,Other,User*%
%FSLAX46Y46*%
G04 Gerber Fmt 4.6, Leading zero omitted, Abs format (unit mm)*
G04 Created by KiCad (PCBNEW 10.0.4) date 2026-06-28 10:21:37*
%MOMM*%
%LPD*%
G01*
G04 APERTURE LIST*
%ADD10C,0.050000*%
G04 APERTURE END LIST*
%TO.C,C15*%
D10*
X203150000Y-84560000D02*
X204610000Y-84560000D01*
X204610000Y-87520000D01*
X203150000Y-87520000D01*
X203150000Y-84560000D01*
%TO.C,C14*%
X190130000Y-72935000D02*
X191590000Y-72935000D01*
X191590000Y-75895000D01*
X190130000Y-75895000D01*
X190130000Y-72935000D01*
%TO.C,C12*%
X194400000Y-84530000D02*
X195860000Y-84530000D01*
X195860000Y-87490000D01*
X194400000Y-87490000D01*
X194400000Y-84530000D01*
%TO.C,C1*%
X192580000Y-81910000D02*
X195540000Y-81910000D01*
X195540000Y-83370000D01*
X192580000Y-83370000D01*
X192580000Y-81910000D01*
%TO.C,C10*%
X203290000Y-81450000D02*
X204750000Y-81450000D01*
X204750000Y-84410000D01*
X203290000Y-84410000D01*
X203290000Y-81450000D01*
%TO.C,U2*%
X187390000Y-68470000D02*
X187390000Y-68470000D01*
%TO.C,X1*%
X193120000Y-68050000D02*
X204520000Y-68050000D01*
X193120000Y-72850000D02*
X193120000Y-68050000D01*
X204520000Y-68050000D02*
X204520000Y-72850000D01*
X204520000Y-72850000D02*
X193120000Y-72850000D01*
%TO.C,C11*%
X192870000Y-84520000D02*
X194330000Y-84520000D01*
X194330000Y-87480000D01*
X192870000Y-87480000D01*
X192870000Y-84520000D01*
%TO.C,C3*%
X204780000Y-68150000D02*
X207740000Y-68150000D01*
X207740000Y-69610000D01*
X204780000Y-69610000D01*
X204780000Y-68150000D01*
%TO.C,C7*%
X193320000Y-73620000D02*
X194780000Y-73620000D01*
X194780000Y-76580000D01*
X193320000Y-76580000D01*
X193320000Y-73620000D01*
%TO.C,C5*%
X197700000Y-84540000D02*
X199160000Y-84540000D01*
X199160000Y-87500000D01*
X197700000Y-87500000D01*
X197700000Y-84540000D01*
%TO.C,C6*%
X199200000Y-84545000D02*
X200660000Y-84545000D01*
X200660000Y-87505000D01*
X199200000Y-87505000D01*
X199200000Y-84545000D01*
%TO.C,U1*%
X196020000Y-77710000D02*
X196020000Y-82710000D01*
X196020000Y-82710000D02*
X201020000Y-77710000D01*
X201020000Y-77710000D02*
X196020000Y-77710000D01*
%TO.C,R2*%
X196330000Y-75150000D02*
X199690000Y-75150000D01*
X199690000Y-77050000D01*
X196330000Y-77050000D01*
X196330000Y-75150000D01*
%TO.C,C8*%
X194790000Y-74110000D02*
X196250000Y-74110000D01*
X196250000Y-77070000D01*
X194790000Y-77070000D01*
X194790000Y-74110000D01*
%TO.C,C4*%
X189865000Y-68140000D02*
X192825000Y-68140000D01*
X192825000Y-69600000D01*
X189865000Y-69600000D01*
X189865000Y-68140000D01*
%TO.C,C2*%
X189570000Y-81910000D02*
X192530000Y-81910000D01*
X192530000Y-83370000D01*
X189570000Y-83370000D01*
X189570000Y-81910000D01*
%TO.C,C9*%
X204850000Y-81440000D02*
X206310000Y-81440000D01*
X206310000Y-84400000D01*
X204850000Y-84400000D01*
X204850000Y-81440000D01*
%TO.C,C13*%
X191690000Y-74270000D02*
X193150000Y-74270000D01*
X193150000Y-77230000D01*
X191690000Y-77230000D01*
X191690000Y-74270000D01*
%TO.C,C16*%
X201680000Y-84550000D02*
X203140000Y-84550000D01*
X203140000Y-87510000D01*
X201680000Y-87510000D01*
X201680000Y-84550000D01*
%TO.C,R1*%
X206660000Y-70160000D02*
X210020000Y-70160000D01*
X210020000Y-72060000D01*
X206660000Y-72060000D01*
X206660000Y-70160000D01*
%TD*%
M02*
