M48
; DRILL file KiCad 10.0.4 date 2026-06-28T10:21:33
; FORMAT={-:-/ absolute / metric / decimal}
; #@! TF.CreationDate,2026-06-28T10:21:33+05:30
; #@! TF.GenerationSoftware,Kicad,Pcbnew,10.0.4
; #@! TF.FileFunction,Plated,1,4,PTH
FMAT,2
METRIC
; #@! TA.AperFunction,Plated,PTH,ViaDrill
T1C0.300
; #@! TA.AperFunction,Plated,PTH,ComponentDrill
T2C1.200
%
G90
G05
T1
X186.81Y-83.46
X186.88Y-68.79
X187.88Y-73.29
X190.86Y-73.64
X192.4Y-76.525
X193.285Y-82.64
X193.6Y-85.225
X195.13Y-85.235
X195.447Y-76.292
X196.24Y-83.02
X196.75Y-86.785
X197.4Y-74.58
X197.8Y-83.55
X200.06Y-84.0
X200.85Y-83.67
X201.15Y-77.69
X201.37Y-82.99
X202.02Y-82.2
X202.42Y-85.265
X202.79Y-79.97
X204.02Y-82.155
X204.66Y-78.77
X205.03Y-76.97
X205.47Y-77.74
X205.52Y-75.12
X205.58Y-82.145
X206.02Y-74.48
X206.26Y-75.72
X206.35Y-79.74
X208.222Y-73.43
X208.222Y-80.29
X209.252Y-71.11
T2
X176.88Y-71.59
X176.88Y-79.59
M30
